Plot:

In this blackboard-jungle drama based on a true story, Michelle Pfeiffer stars as 
LouAnne Johnson, a Marine turned teacher who squares off against a classroom of impudent, inner-city teens, whose bullying tactics nearly drive her out the first day. But Johnson radically changes her lesson plan to include bribery and browbeating (despite objections from the school's prissy principal) in an effort to teach the class that learning is its own reward.


Cast:

Michelle Pfeiffer as LouAnne Johnson
George Dzundza as Hal Griffith
Courtney B. Vance as George Grandey
Robin Bartlett as Carla Nichols
Beatrice Winde as Mary Benton
John Neville as Waiter
Lorraine Toussaint as Irene Roberts
Renoly Santiago as Raúl Sanchero
Wade Domínguez as Emilio Ramírez
Bruklin Harris as Callie Roberts
Marcello Thedford as Cornelius Bates
Roberto Alvarez as Gusmaro Rivera
Richard Grant as Durrell Benton
Marisela Gonzales as Angela
Toni Nichelle Buzhardt as Nikki
Norris Young as Kareem
Rahman Ibraheem as Big G
Desire Galvez as Taiwana
Wilson Limpo as Roderick
Raymond Grant as Lionel Benton
Veronica Robles as Stephanie


Details:

Video:

ID : 1
Format : AVC
Format/Info : Advanced Video Codec
Format profile : Main@L3.0
Format settings, CABAC : Yes
Format settings, ReFrames : 2 frames
Codec ID : avc1
Codec ID/Info : Advanced Video Coding
Duration : 1h 38mn
Bit rate mode : Variable
Bit rate : 827 Kbps
Width : 718 pixels
Height : 340 pixels
Display aspect ratio : 1.877
Frame rate mode : Variable
Frame rate : 23.976 fps
Minimum frame rate : 10.897 fps
Maximum frame rate : 89.463 fps
Color space : YUV
Chroma subsampling : 4:2:0
Bit depth : 8 bits
Scan type : Progressive
Bits/(Pixel*Frame) : 0.141
Stream size : 585 MiB (83%)
Writing library : x264 core 79

Audio:

ID : 2
Format : AAC
Format/Info : Advanced Audio Codec
Format version : Version 4
Format profile : LC
Format settings, SBR : No
Codec ID : 40
Duration : 1h 38mn
Bit rate mode : Variable
Bit rate : 159 Kbps
Maximum bit rate : 221 Kbps
Channel(s) : 2 channels
Channel positions : Front: L R
Sampling rate : 48.0 KHz
Stream size : 112 MiB (16%)
Language : English







================================== 
http://thepiratebay.org/user/hiest
==================================







Screens:
 
http://www.postimg.com/image/24000/23816.jpg
 
http://www.postimg.com/image/24000/23817.jpg